PathFileType	4	(X/Y/Z)	RBDS001\RBDS001runT35.trc
DataRate	CameraRate	NumFrames	NumMarkers	Units	OrigDataRate	OrigDataStartFrame	OrigNumFrames
150.000000	150.000000	4	32	mm	150.000000	562	4500
Frame#	Time	L.ASIS			L.Heel.Bottom			L.Heel.Lateral			L.Heel.Top			L.Iliac.Crest			L.MT1			L.MT5			L.PSIS			L.Shank.Bottom.Lateral			L.Shank.Bottom.Medial			L.Shank.Top.Lateral			L.Shank.Top.Medial			L.Thigh.Bottom.Lateral			L.Thigh.Bottom.Medial			L.Thigh.Top.Lateral			L.Thigh.Top.Medial			R.ASIS			R.Heel.Bottom			R.Heel.Lateral			R.Heel.Top			R.Iliac.Crest			R.MT1			R.MT5			R.PSIS			R.Shank.Bottom.Lateral			R.Shank.Bottom.Medial			R.Shank.Top.Lateral			R.Shank.Top.Medial			R.Thigh.Bottom.Lateral			R.Thigh.Bottom.Medial			R.Thigh.Top.Lateral			R.Thigh.Top.Medial			
		X1	Y1	Z1	X2	Y2	Z2	X3	Y3	Z3	X4	Y4	Z4	X5	Y5	Z5	X6	Y6	Z6	X7	Y7	Z7	X8	Y8	Z8	X9	Y9	Z9	X10	Y10	Z10	X11	Y11	Z11	X12	Y12	Z12	X13	Y13	Z13	X14	Y14	Z14	X15	Y15	Z15	X16	Y16	Z16	X17	Y17	Z17	X18	Y18	Z18	X19	Y19	Z19	X20	Y20	Z20	X21	Y21	Z21	X22	Y22	Z22	X23	Y23	Z23	X24	Y24	Z24	X25	Y25	Z25	X26	Y26	Z26	X27	Y27	Z27	X28	Y28	Z28	X29	Y29	Z29	X30	Y30	Z30	X31	Y31	Z31	X32	Y32	Z32	

563	3.746666666666667	2466.856012792648	1046.810939041487	966.8623226132236	1736.01497399764	441.1507103824901	1020.633895955837	1752.802438004502	412.007491173401	981.4716494863285	1783.682126786442	441.5478968581879	1018.391922673076	2420.47366328643	1126.304691018981	942.4506676775831	1803.001800980438	233.2172560061891	1076.421401260084	1776.219504614299	250.3237808508038	972.1008809158587	2299.745579207988	1104.460344690915	1038.994880841465	1893.679025882281	417.1285978675044	965.188213811761	1874.294757691374	453.1179984098603	997.040273904894	1961.016221256565	460.3210392151225	952.7544384840727	1944.952882473522	498.3655432167791	986.5625139542278	2247.472922537852	673.678612759367	935.0583756005212	2206.915562685111	692.8504231229984	993.6557995678523	2265.563033680986	781.3995844753331	917.7025163893225	2231.404456476133	798.9688877370838	974.7527625745143	2458.1187475243	1047.415413620133	1170.469471580466	2547.346787533135	55.47442482206756	1096.129053411341	2581.111055095547	61.88308355432321	1139.357845449958	2556.234952409887	102.4741585286866	1107.086997304104	2401.646294658476	1122.405035284422	1208.044230299269	2752.307124095306	61.83140824492052	1145.692842195116	2763.313366740697	97.2448861448058	1042.386282028293	2300.651222475712	1099.24054297762	1114.779680092319	2604.793601526227	206.0927831934423	1161.383776393491	2559.729158626644	204.0959588221388	1129.579602780033	2585.232667189617	282.8645477746794	1181.09232966617	2542.064256943923	280.941024338846	1147.671177746234	2515.617859108598	642.2342081225553	1210.469460879631	2463.633723085887	618.8760739434317	1163.122530442197	2456.019821873349	734.1972277146817	1226.859507142665	2406.554480054919	711.3035729561971	1183.239545742715	
564	3.753333333333333	2467.156932126163	1043.817795685147	966.7123090205505	1741.475020521115	458.0418374034645	1018.003331586076	1756.721232001834	428.2442327314337	978.7654684027534	1788.97847958557	456.1701783490792	1015.653581013041	2420.218767509804	1122.882884408818	941.7407368458563	1798.487281527998	247.6134814509861	1073.431114741584	1772.409176469538	266.1853509047184	969.1349279576569	2299.669145267338	1100.253670032053	1037.645462685121	1897.802306039647	426.5311683870951	962.73106696745	1880.095658600367	463.4233938820771	994.5666221537239	1967.257498190987	466.2934990034184	950.7330135645054	1953.002634088134	505.0819476834578	984.5439190631234	2254.390024675592	666.587919093924	934.6298329408935	2214.352580771428	684.4573476257926	993.9660395943592	2270.059105150612	774.7380817324899	917.8746382047693	2236.222212871045	791.1989414323003	975.4142211399161	2457.824043028459	1044.842242845653	1170.616897098869	2541.287467248862	52.78855749317557	1092.8695359142	2575.010854721134	58.64352092873188	1136.223790867484	2550.706196357188	99.5943610578325	1104.032677441092	2400.527819631047	1119.279280814102	1207.500511034031	2746.088678626592	57.79013050524812	1142.957278886591	2757.523195662151	92.4218979435697	1039.409783009124	2300.188453556615	1095.307382820015	1113.498493120249	2600.430725182624	201.7439834478977	1159.206085988264	2555.418918884562	200.1943503968304	1127.339452466145	2581.458429783087	278.5465622780734	1179.182563838006	2538.360487660697	277.0727552842005	1145.650201339377	2514.03432886918	638.7618254188998	1209.209735548223	2461.922728921499	615.6428178624759	1161.867278042197	2454.8134535923	731.0092164219727	1225.542470925527	2405.186174107225	708.229753302674	1182.11288135865	
565	3.76	2467.315136961682	1040.227800640284	966.5824593380379	1749.499069334256	474.5853867440802	1015.661439166381	1762.919093715732	444.2183411975177	976.2092609507665	1796.702824249076	470.2360722672576	1013.037701731672	2419.882715584767	1118.799872756181	940.918003381772	1795.422791069452	261.705805340669	1070.019398327561	1770.005272860585	282.1062065744787	965.8775011968926	2299.477343073863	1095.489063673935	1036.216074129592	1903.538487926493	435.3280840316586	960.1959961504194	1887.53444614399	473.0212519430771	992.0217817305924	1974.931193497486	471.5886383622936	948.6402023807806	1962.488979986012	511.0313591498604	982.4577450594812	2261.575149528803	658.9668307803735	934.2856517447774	2222.055872270395	675.4794601070466	994.3201169378968	2274.638345561532	767.5137128819018	918.1167634136573	2241.14516687206	782.8177940802838	976.1567288447806	2457.416168434616	1041.773389196704	1170.933538072426	2531.710075718694	50.36655132014686	1089.310586857751	2565.257112163067	55.84113766534222	1132.830833029405	2541.831123355542	97.00173284766944	1100.401185723356	2399.294092817563	1115.588867673022	1206.985861687244	2736.225005156544	53.83061830114052	1140.496186964394	2748.523590546218	86.83509787847464	1036.551383812883	2299.574675028945	1090.863148215758	1112.125903089556	2593.702628165399	197.256978549283	1156.653207724632	2548.743345862488	196.576481025752	1124.775935369106	2576.013391691303	274.1807111285844	1176.981880904047	2532.976923726553	273.5719261870375	1143.396554253475	2512.936290732065	635.268642741744	1207.743963567305	2460.661031600303	612.1977970431218	1160.597140401487	2453.949316416511	727.696123947936	1224.02085526002	2404.11624848771	704.8343936717802	1180.937860637092	
566	3.766666666666667	2467.320116639826	1036.093491386753	966.462577716946	1759.925029188188	490.5119179018795	1013.540892395053	1771.328574347777	459.6810880044598	973.7565174723941	1806.696850269316	483.5489508237608	1010.529665823678	2419.451656730297	1114.117179061354	939.9920934866685	1793.921208040425	275.3496717895015	1066.230164186602	1769.219226936389	297.876179985349	962.3399645637451	2299.145248627908	1090.219174067351	1034.762056373765	1910.839361699364	443.4464671235942	957.6139997472532	1896.537624748019	481.8428602840166	989.4244494331828	1983.973583307298	476.17890408438	946.4910800193899	1973.319470046552	516.1918307200416	980.3052844935964	2269.020110320783	650.9281561792315	933.9823214840247	2229.974826807957	666.0649827267714	994.6415994781166	2279.320364308772	759.8229932583579	918.3528280202679	2246.151113146198	773.9557114834628	976.8758422956485	2456.888309120873	1038.20359545879	1171.389708983409	2518.851518629728	48.11371457029735	1085.607307732846	2552.126999461238	53.47404437250254	1129.293683588244	2529.758241903679	94.62924316026636	1096.307666394538	2398.005818523592	1111.3342036257	1206.515601629789	2723.023090647866	50.19950977483747	1138.248634712015	2736.474373610863	80.82319441762486	1033.758137515979	2298.803210449992	1085.958277627804	1110.714844521528	2584.71277570033	192.6963349654659	1153.721087989063	2539.78954345234	193.2822858281314	1121.922272210725	2568.96719497179	269.8001936980646	1174.500487639844	2525.966565511344	270.4446014870552	1140.958079037483	2512.183440356403	631.6743548203007	1206.139806684861	2459.747680784715	608.5269223719404	1159.289158178485	2453.301565717411	724.1857417502196	1222.384027609346	2403.256660253935	701.1139995029199	1179.710840743383	
